<svg xmlns="http://www.w3.org/2000/svg" viewBox="-0.5 -0.5 200 200" id="Avatar-Network--Streamline-Free-Illustrations" height="200" width="200">
  <desc>
    Avatar Network Streamline Illustration: https://streamlinehq.com
  </desc>
  <g>
    <path stroke="#daedf7" stroke-miterlimit="10" fill="#e8f4fa" d="M22.24024 100.71588999999999a79.6 79.6 0 1 0 159.2 0 79.6 79.6 0 1 0 -159.2 0" stroke-width="1"></path>
    <path stroke="#45413c" stroke-linecap="round" stroke-linejoin="round" fill="none" d="m99.59949999999999 168.42365 34.43496 -13.02455M23.205389999999998 77.05678l29.159470000000002 75.39513M98.23635 24.33173l-37.34832 20.61839m-37.68264 32.10666 37.68264 -32.10666m68.61519999999999 -8.47939 -31.26688 -12.139m48.21969 30.53854 -16.95281 -18.399540000000002m40.526349999999994 26.49287 -23.57354 -8.09333m13.35688 40.75122L134.03446 155.3991m37.07768 -16.71003 -37.07768 16.71003M60.88803 44.95012l68.61519999999999 -8.47939M60.49202 121.06762l-8.12716 31.38429M23.205389999999998 77.05678l37.286629999999995 44.01084M99.59949999999999 168.42365l-39.10748 -47.356030000000004m0.80595 -40.78903 38.30153 -7.51623m29.90373 -36.29163L107.17344 111.25095m52.639480000000006 -15.62946 -13.35688 -40.75122" stroke-width="1"></path>
    <path fill="#ffe500" stroke="#45413c" stroke-linecap="round" stroke-linejoin="round" d="m171.11214 138.68907 -63.938700000000004 -27.43812" stroke-width="1"></path>
    <path stroke="#45413c" stroke-linecap="round" stroke-linejoin="round" fill="none" d="M107.17344 111.25095 99.59949999999999 72.76236l29.90373 -36.29163" stroke-width="1"></path>
    <path fill="#ffe500" stroke="#45413c" stroke-linecap="round" stroke-linejoin="round" d="m99.59949999999999 72.76236 60.21342 22.85913m11.29922 43.06758 -11.29922 -43.06758" stroke-width="1"></path>
    <path stroke="#45413c" stroke-linecap="round" stroke-linejoin="round" fill="none" d="m134.03446 155.3991 -26.86102 -44.148149999999994m-0.04975 -0.32238L99.59949999999999 168.42365l-47.23464 -15.971739999999999" stroke-width="1"></path>
    <path fill="#ffe500" stroke="#45413c" stroke-linecap="round" stroke-linejoin="round" d="m107.12369000000001 110.92857000000001 -46.63167 10.13905M170.02957999999998 62.9636l-10.216660000000001 32.65789" stroke-width="1"></path>
    <path fill="#ff6242" stroke="#45413c" stroke-linecap="round" stroke-linejoin="round" d="M93.95188 72.76236a5.64762 5.64762 0 1 0 11.29524 0 5.64762 5.64762 0 1 0 -11.29524 0" stroke-width="1"></path>
    <path fill="#ffffff" stroke="#45413c" stroke-linecap="round" stroke-linejoin="round" d="m107.17344 111.25095 39.282599999999995 -56.38068" stroke-width="1"></path>
    <path fill="#ffe500" stroke="#45413c" stroke-linecap="round" stroke-linejoin="round" d="m61.29797 80.27859000000001 45.87547 30.97236m-45.87547 -30.97236 -0.40993999999999997 -35.32847m0.40993999999999997 35.32847L98.23635 24.33173m-36.93838 55.94686 -38.09258 -3.22181m38.09258 3.22181 -0.80595 40.78903" stroke-width="1"></path>
    <path fill="#ffe500" stroke="#45413c" stroke-linecap="round" stroke-linejoin="round" d="M140.80841999999998 54.87027a5.64762 5.64762 0 1 0 11.29524 0 5.64762 5.64762 0 1 0 -11.29524 0" stroke-width="1"></path>
    <path fill="#ff6242" stroke="#45413c" stroke-linecap="round" stroke-linejoin="round" d="M164.38196 62.9636a5.64762 5.64762 0 1 0 11.29524 0 5.64762 5.64762 0 1 0 -11.29524 0" stroke-width="1"></path>
    <path fill="#4acfff" stroke="#45413c" stroke-linecap="round" stroke-linejoin="round" d="M165.46452 138.68907a5.64762 5.64762 0 1 0 11.29524 0 5.64762 5.64762 0 1 0 -11.29524 0" stroke-width="1"></path>
    <path fill="#4acfff" stroke="#45413c" stroke-linecap="round" stroke-linejoin="round" d="M123.85561 36.47073a5.64762 5.64762 0 1 0 11.29524 0 5.64762 5.64762 0 1 0 -11.29524 0" stroke-width="1"></path>
    <path fill="#4acfff" stroke="#45413c" stroke-linecap="round" stroke-linejoin="round" d="M55.218520000000005 44.95012a5.64762 5.64762 0 1 0 11.29524 0 5.64762 5.64762 0 1 0 -11.29524 0" stroke-width="1"></path>
    <path fill="#ffe500" stroke="#45413c" stroke-linecap="round" stroke-linejoin="round" d="M17.55777 77.2916a5.64762 5.64762 0 1 0 11.29524 0 5.64762 5.64762 0 1 0 -11.29524 0" stroke-width="1"></path>
    <path fill="#ffe500" stroke="#45413c" stroke-linecap="round" stroke-linejoin="round" d="M92.58873 24.33173a5.64762 5.64762 0 1 0 11.29524 0 5.64762 5.64762 0 1 0 -11.29524 0" stroke-width="1"></path>
    <path fill="#ffe500" stroke="#45413c" stroke-linecap="round" stroke-linejoin="round" d="M93.95188 168.17291a5.64762 5.64762 0 1 0 11.29524 0 5.64762 5.64762 0 1 0 -11.29524 0" stroke-width="1"></path>
    <path fill="#ff6242" stroke="#45413c" stroke-linecap="round" stroke-linejoin="round" d="M46.71724 152.45191a5.64762 5.64762 0 1 0 11.29524 0 5.64762 5.64762 0 1 0 -11.29524 0" stroke-width="1"></path>
    <path fill="#4acfff" stroke="#45413c" stroke-linecap="round" stroke-linejoin="round" d="M54.8444 121.06762a5.64762 5.64762 0 1 0 11.29524 0 5.64762 5.64762 0 1 0 -11.29524 0" stroke-width="1"></path>
    <path d="M56.6951 76.18914000000001a4.60486 4.60486 0 1 0 9.20773 0l0 -2.30243a4.60486 4.60486 0 1 0 -9.20773 0z" fill="#e8f4fa" stroke-width="1"></path>
    <g stroke="#45413c" stroke-linecap="round" stroke-linejoin="round">
      <path fill="#ffffff" d="M46.98788 76.52147000000001a14.310089999999999 14.310089999999999 0 1 0 28.620179999999998 0 14.310089999999999 14.310089999999999 0 1 0 -28.620179999999998 0" stroke-width="1"></path>
      <path d="M56.6951 76.18914000000001a4.60486 4.60486 0 1 0 9.20773 0l0 -2.30243a4.60486 4.60486 0 1 0 -9.20773 0z" fill="#ffcebf" stroke-width="1"></path>
      <path d="M70.86589 87.16199999999999a14.31208 14.31208 0 0 1 -19.125890000000002 0 10.35994 10.35994 0 0 1 19.104 0" fill="#9ceb60" stroke-width="1"></path>
      <path d="M56.732910000000004 73.29169999999999a4.60287 4.60287 0 0 1 8.38984 -1.96811 8.38387 8.38387 0 0 1 -8.38984 1.96811" fill="#a86c4d" stroke-width="1"></path>
    </g>
    <g stroke="#45413c" stroke-linecap="round" stroke-linejoin="round">
      <path fill="#ffffff" d="M86.1471 111.25095a21.02833 21.02833 0 1 0 42.05666 0 21.02833 21.02833 0 1 0 -42.05666 0" stroke-width="1"></path>
      <path d="M100.40943 110.76339999999999a6.766 6.766 0 0 0 13.532 0l0 -3.383a6.766 6.766 0 0 0 -13.532 0z" fill="#ffcebf" stroke-width="1"></path>
      <path d="M121.2308 126.89036a21.02833 21.02833 0 0 1 -28.10676 0 15.22151 15.22151 0 0 1 28.09084 -0.023880000000000002" fill="#ff6242" stroke-width="1"></path>
      <path d="M100.46515 106.50679a6.766 6.766 0 0 1 12.338000000000001 -2.89147 12.324069999999999 12.324069999999999 0 0 1 -12.338000000000001 2.89147" fill="#a86c4d" stroke-width="1"></path>
    </g>
    <g stroke="#45413c" stroke-linecap="round" stroke-linejoin="round">
      <path fill="#ffffff" d="M145.50283000000002 94.59067a14.310089999999999 14.310089999999999 0 1 0 28.620179999999998 0 14.310089999999999 14.310089999999999 0 1 0 -28.620179999999998 0" stroke-width="1"></path>
      <path d="M155.20806 94.25834a4.60486 4.60486 0 1 0 9.20972 0l0 -2.30243a4.60486 4.60486 0 1 0 -9.20972 0z" fill="#ffcebf" stroke-width="1"></path>
      <path d="M169.37885 105.23319a14.310089999999999 14.310089999999999 0 0 1 -19.12788 0 10.35994 10.35994 0 0 1 19.117929999999998 -0.01592" fill="#ffaa54" stroke-width="1"></path>
      <path d="M155.24587 91.36089999999999a4.60486 4.60486 0 0 1 8.391829999999999 -1.96811 8.391829999999999 8.391829999999999 0 0 1 -8.391829999999999 1.96811" fill="#a86c4d" stroke-width="1"></path>
    </g>
    <g stroke="#45413c" stroke-linecap="round" stroke-linejoin="round">
      <path fill="#ffffff" d="M119.72437 155.34935a14.310089999999999 14.310089999999999 0 1 0 28.620179999999998 0 14.310089999999999 14.310089999999999 0 1 0 -28.620179999999998 0" stroke-width="1"></path>
      <path d="M129.42960000000002 155.02100000000002a4.60486 4.60486 0 0 0 9.20972 0l0 -2.30442a4.60486 4.60486 0 0 0 -9.20972 0z" fill="#ffcebf" stroke-width="1"></path>
      <path d="M143.60039 165.99386a14.31606 14.31606 0 0 1 -19.12788 0 10.35994 10.35994 0 0 1 19.117929999999998 -0.01791" fill="#00b8f0" stroke-width="1"></path>
      <path d="M129.46741 152.12157a4.60486 4.60486 0 0 1 8.391829999999999 -1.96811 8.391829999999999 8.391829999999999 0 0 1 -8.391829999999999 1.96811" fill="#a86c4d" stroke-width="1"></path>
    </g>
  </g>
</svg>